<svg xmlns="http://www.w3.org/2000/svg" viewBox="0 0 32 32">
  <defs>
    <linearGradient id="g" x1="0" y1="0" x2="1" y2="1">
      <stop offset="0%" stop-color="#00d9ff"/>
      <stop offset="100%" stop-color="#6366f1"/>
    </linearGradient>
  </defs>
  <rect width="32" height="32" rx="7" fill="url(#g)"/>
  <g transform="translate(4 4)" fill="none" stroke="white" stroke-width="1.5" stroke-linecap="round" stroke-linejoin="round">
    <path d="M12 2C8.5 2 6 4 5.5 6.5C3.5 7 2.5 9 2.5 11c0 2 1 3.5 2 4-.5 1.5 0 3 1.5 4s3 1 4 .5C11 20.5 11.5 22 12 22s1-1.5 1.5-2.5c1 .5 2.5 0 4-.5s2-2.5 1.5-4c1-.5 2-2 2-4 0-2-1-4-3-4.5C18 4 15.5 2 12 2z"/>
    <path d="M12 5v14"/>
    <path d="M7 9h5"/>
    <path d="M12 9h5"/>
    <path d="M6 14h6"/>
    <path d="M12 14h6"/>
    <circle cx="7" cy="9" r="1" fill="white" stroke="none"/>
    <circle cx="17" cy="9" r="1" fill="white" stroke="none"/>
    <circle cx="6" cy="14" r="1" fill="white" stroke="none"/>
    <circle cx="18" cy="14" r="1" fill="white" stroke="none"/>
  </g>
</svg>
